<svg id="Layer_1" data-name="Layer 1" xmlns="http://www.w3.org/2000/svg" xmlns:xlink="http://www.w3.org/1999/xlink" viewBox="0 0 200.74 200.67"><defs><style>.cls-1{fill:url(#AlgoTecture);}</style><linearGradient id="AlgoTecture" x1="152.18" y1="151.45" x2="41.57" y2="40.84" gradientUnits="userSpaceOnUse"><stop offset="0" stop-color="#746174"/><stop offset="0.33" stop-color="#a53438"/><stop offset="0.66" stop-color="#ef364c"/><stop offset="1" stop-color="#f4a927"/></linearGradient></defs><title>AlgoTecture_Logos</title><path class="cls-1" d="M53.06,30.89A21.47,21.47,0,1,1,31.6,52.35,21.47,21.47,0,0,1,53.06,30.89ZM31.6,98.52A19.63,19.63,0,0,1,51.22,78.9h1.85C69.64,78.89,79.6,65,79.6,52.35V50.54A19.65,19.65,0,0,1,99.25,30.89h3.63a19.65,19.65,0,0,1,19.65,19.65v3.63a19.65,19.65,0,0,1-19.65,19.65h-8c-11.54,0-20.31,8.47-20.31,20.31v8.07A19.63,19.63,0,0,1,54.9,121.83H51.22A19.63,19.63,0,0,1,31.6,102.2ZM170.54,160a9.81,9.81,0,0,1-9.81,9.81H137.42a9.81,9.81,0,0,1-9.81-9.81V136.71a9.81,9.81,0,0,1,9.81-9.81h23.31a9.81,9.81,0,0,1,9.81,9.81Zm0-53a14.71,14.71,0,0,1-14.71,14.71H138c-11.08,0-15.43,9.46-15.43,14.89v18.45a14.71,14.71,0,0,1-14.71,14.71H94.32A14.71,14.71,0,0,1,79.6,155.12v-13.5A14.71,14.71,0,0,1,94.32,126.9h13.5c11.33,0,19.79-9.1,19.79-20.33v-13a14.71,14.71,0,0,1,14.71-14.71h13.5a14.71,14.71,0,0,1,14.71,14.71Zm0-52.92a19.63,19.63,0,0,1-19.63,19.63h-6.45c-16.46,0-21.93,11.46-21.93,20.49v12.81a14.76,14.76,0,0,1-14.72,14.77H95c-9,0-20.49,5.47-20.49,21.93v6.45A19.63,19.63,0,0,1,54.9,169.83H51.22A19.63,19.63,0,0,1,31.6,150.2v-3.67A19.63,19.63,0,0,1,51.22,126.9h3.22c12,0,25.14-8.69,25.14-25.85h0V93.61A14.72,14.72,0,0,1,94.32,78.89v-.05h7.45v0c17.16,0,25.85-13.16,25.85-25.14h0V50.46a19.63,19.63,0,0,1,19.63-19.63h3.67a19.63,19.63,0,0,1,19.63,19.63Z"/></svg>