<svg id="Layer_1" data-name="Layer 1" xmlns="http://www.w3.org/2000/svg" xmlns:xlink="http://www.w3.org/1999/xlink" viewBox="0 0 200.74 200.67"><defs><style>.cls-1{fill:url(#AlgoTecture);}</style><linearGradient id="AlgoTecture" x1="163.61" y1="162.76" x2="28.27" y2="27.43" gradientUnits="userSpaceOnUse"><stop offset="0" stop-color="#746174"/><stop offset="0.33" stop-color="#a53438"/><stop offset="0.66" stop-color="#ef364c"/><stop offset="1" stop-color="#f4a927"/></linearGradient></defs><title>AlgoTecture_Logos</title><path class="cls-1" d="M42.33,15.25A26.26,26.26,0,1,1,16.07,41.52,26.26,26.26,0,0,1,42.33,15.25ZM16.07,98a24,24,0,0,1,24-24h2.26C62.62,74,74.81,57,74.81,41.52V39.29a24,24,0,0,1,24-24h4.45a24,24,0,0,1,24,24v4.45a24,24,0,0,1-24,24H93.44c-14.12,0-24.85,10.37-24.85,24.85v9.87a24,24,0,0,1-24,24h-4.5a24,24,0,0,1-24-24Zm170,75.25a12,12,0,0,1-12,12H145.54a12,12,0,0,1-12-12V144.73a12,12,0,0,1,12-12h28.52a12,12,0,0,1,12,12Zm0-64.81a18,18,0,0,1-18,18H146.21c-13.55,0-18.88,11.58-18.88,18.22v22.58a18,18,0,0,1-18,18H92.81a18,18,0,0,1-18-18V150.73a18,18,0,0,1,18-18h16.52c13.86,0,24.22-11.13,24.22-24.87V91.93a18,18,0,0,1,18-18h16.52a18,18,0,0,1,18,18Zm0-64.75a24,24,0,0,1-24,24h-7.89c-20.14,0-26.83,14-26.83,25.07v15.67a18.06,18.06,0,0,1-18,18.07H93.66c-11,0-25.07,6.7-25.07,26.83v7.89a24,24,0,0,1-24,24H40.08a24,24,0,0,1-24-24v-4.49a24,24,0,0,1,24-24H44c14.66,0,30.76-10.63,30.76-31.63h0V92a18,18,0,0,1,18-18v-.07h9.11v0c21,0,31.63-16.1,31.63-30.76h0V39.2a24,24,0,0,1,24-24h4.49a24,24,0,0,1,24,24Z"/></svg>