<?xml version="1.0" encoding="utf-8"?>
<!-- Generator: Adobe Illustrator 21.0.2, SVG Export Plug-In . SVG Version: 6.00 Build 0)  -->
<svg version="1.1" id="Layer_1" xmlns="http://www.w3.org/2000/svg" xmlns:xlink="http://www.w3.org/1999/xlink" x="0px" y="0px"
	 viewBox="0 0 200.7 200.7" style="enable-background:new 0 0 200.7 200.7;" xml:space="preserve">
<style type="text/css">
	.st0{fill:#FFFFFF;}
	.st1{fill:url(#SVGID_1_);}
</style>
<linearGradient id="SVGID_1_" gradientUnits="userSpaceOnUse" x1="181.2003" y1="181.1618" x2="23.7602" y2="23.7217">
	<stop  offset="0" style="stop-color:#746174"/>
	<stop  offset="0.33" style="stop-color:#A53438"/>
	<stop  offset="0.66" style="stop-color:#EF364C"/>
	<stop  offset="1" style="stop-color:#F4A927"/>
</linearGradient>
<path class="st1" d="M93,125.6c-12,0-26.1,7.3-26.1,27.8v7.9c0,12.7-10.3,23-23,23h-4.5c-12.7,0-23-10.3-23-23v-4.5
	c0-12.7,10.3-23,23-23h3.9c7.9,0,15.8-3,21.6-8.2c4.5-4,9.7-11.2,10.2-22.8l0.1,0V92.1c0-9.4,7.6-17,17-17l1-0.1h8.1l1.6,0l0,0
	c11.6-0.5,18.8-5.7,22.8-10.2c5.2-5.8,8.2-13.6,8.2-21.6v-3.9c0-12.7,10.3-23,23-23h4.5c12.7,0,23,10.3,23,23v4.5
	c0,12.7-10.3,23-23,23h-7.9c-20.6,0-27.8,14-27.8,26.1v15.7c0,9.4-7.6,17.1-17,17.1H93z M167.4,125.6c9.4,0,17-7.6,17-17V92
	c0-9.4-7.6-17-17-17h-16.5c-9.4,0-17,7.6-17,17l0,16.5c-0.3,14.2-11.3,25.3-25.2,25.3H92.1c-9.4,0-17,7.6-17,17v16.5
	c0,9.4,7.6,17,17,17h16.5c9.4,0,17-7.6,17-17v-22.6c0-3.2,1.2-8.1,4.6-12.2c2.6-3.2,7.3-7,15.3-7H167.4z M173.4,133.9h-28.5
	c-6.1,0-11,4.9-11,11v28.5c0,6.1,4.9,11,11,11h28.5c6.1,0,11-4.9,11-11v-28.5C184.4,138.8,179.5,133.9,173.4,133.9z M41.6,66.9
	c13.9,0,25.3-11.3,25.3-25.3S55.5,16.3,41.6,16.3S16.3,27.7,16.3,41.6S27.7,66.9,41.6,66.9z M39.4,125.6h4.5c12.7,0,23-10.3,23-23
	v-9.9C66.9,78,78,66.9,92.7,66.9h9.9c12.7,0,23.1-10.3,23.1-23.1v-4.4c0-12.7-10.3-23.1-23.1-23.1h-4.4c-12.7,0-23.1,10.3-23.1,23.1
	v2.2c0,16.1-12.8,33.5-33.5,33.5h-2.3c-12.7,0-23,10.3-23,23v4.5C16.3,115.3,26.7,125.6,39.4,125.6z"/>
</svg>
