<?xml version="1.0" encoding="utf-8"?>
<!-- Generator: Adobe Illustrator 21.0.2, SVG Export Plug-In . SVG Version: 6.00 Build 0)  -->
<svg version="1.1" id="Layer_1" xmlns="http://www.w3.org/2000/svg" xmlns:xlink="http://www.w3.org/1999/xlink" x="0px" y="0px"
	 viewBox="0 0 362 328" style="enable-background:new 0 0 362 328;" xml:space="preserve">
<style type="text/css">
	.st0{fill:none;stroke:#A43237;stroke-miterlimit:10;}
	.st1{fill:none;stroke:#A43237;stroke-miterlimit:10;stroke-dasharray:2.0003,2.0003;}
	.st2{fill:none;stroke:#A43237;stroke-miterlimit:10;stroke-dasharray:2.0295,2.0295;}
	.st3{fill:#F4A928;}
	.st4{fill:#EF324B;}
	.st5{fill:#FF7BAC;}
	.st6{fill:#F4CC95;}
	.st7{fill:#808080;}
</style>
<g>
	<g>
		<g>
			<line class="st0" x1="25.4" y1="271.5" x2="26.4" y2="271.8"/>
			<polyline class="st1" points="28.3,272.5 92.7,295.9 258.2,313.7 			"/>
			<polyline class="st0" points="259.2,313.8 260.2,314 259.3,313.6 			"/>
			<line class="st2" x1="257.4" y1="312.8" x2="156.7" y2="272.2"/>
			<line class="st0" x1="155.8" y1="271.8" x2="154.8" y2="271.5"/>
		</g>
	</g>
	<polyline class="st0" points="260.2,314 324.1,236.4 348.5,146.6 334,84.7 318.9,14.9 100,16.9 65.1,34.7 28.5,97.6 12.9,197.7 
		25.4,271.5 	"/>
	<polyline class="st0" points="348.5,146.6 275.7,121.6 334,84.7 250.3,77.8 318.9,14.9 154.8,47.1 100,16.9 119.9,91 154.8,47.1 
		250.3,77.8 275.7,121.6 198.8,146.6 270.1,251.6 139.7,241.7 92.7,295.9 90.1,202.3 12.9,197.7 67.8,144.2 28.5,97.6 119.9,91 
		65.1,34.7 	"/>
	<polygon class="st0" points="270.1,251.6 324.1,236.4 275.7,121.6 	"/>
	<polygon class="st0" points="119.9,91 90.1,202.3 67.8,144.2 	"/>
	<polyline class="st0" points="119.9,91 198.8,146.6 154.8,47.1 	"/>
	<polyline class="st0" points="250.3,77.8 198.8,146.6 139.7,241.7 90.1,202.3 198.8,146.6 	"/>
	<polyline class="st0" points="260.2,304 270.1,251.6 154.8,271.5 139.7,241.7 	"/>
	<line class="st0" x1="154.8" y1="271.5" x2="92.7" y2="295.9"/>
	<line class="st0" x1="90.1" y1="202.3" x2="25.4" y2="271.5"/>
	<circle class="st3" cx="154.8" cy="47.1" r="9.9"/>
	<circle class="st4" cx="198.8" cy="146.6" r="9.9"/>
	<circle cx="90.1" cy="202.3" r="9.9"/>
	<circle class="st5" cx="270.1" cy="251.6" r="9.9"/>
	<circle class="st6" cx="92.7" cy="295.9" r="9.9"/>
	<circle class="st7" cx="318.9" cy="14.9" r="9.9"/>
	<circle class="st7" cx="334" cy="84.7" r="9.9"/>
	<circle class="st7" cx="348.5" cy="146.6" r="9.9"/>
	<circle class="st7" cx="324.1" cy="236.4" r="9.9"/>
	<circle class="st7" cx="275.7" cy="121.6" r="9.9"/>
	<circle class="st7" cx="250.3" cy="77.8" r="9.9"/>
	<circle class="st7" cx="100" cy="16.9" r="9.9"/>
	<circle class="st7" cx="65.1" cy="34.7" r="9.9"/>
	<circle class="st7" cx="119.9" cy="91" r="9.9"/>
	<circle class="st7" cx="28.5" cy="97.6" r="9.9"/>
	<circle class="st7" cx="67.8" cy="144.2" r="9.9"/>
	<circle class="st7" cx="12.9" cy="197.7" r="9.9"/>
	<circle class="st7" cx="25.4" cy="271.5" r="9.9"/>
	<circle class="st7" cx="139.7" cy="241.7" r="9.9"/>
	<circle class="st7" cx="154.8" cy="271.5" r="9.9"/>
	<circle class="st7" cx="260.2" cy="314" r="9.9"/>
</g>
</svg>
