<?xml version="1.0" encoding="utf-8"?>
<!-- Generator: Adobe Illustrator 21.0.2, SVG Export Plug-In . SVG Version: 6.00 Build 0)  -->
<svg version="1.1" id="Layer_1" xmlns="http://www.w3.org/2000/svg" xmlns:xlink="http://www.w3.org/1999/xlink" x="0px" y="0px"
	 viewBox="0 0 24 24" style="enable-background:new 0 0 24 24;" xml:space="preserve">
<style type="text/css">
	.st0{fill:#A53438;}
</style>
<path class="st0" d="M12,0C5.4,0,0,5.4,0,12s5.4,12,12,12s12-5.4,12-12S18.6,0,12,0z M12,1.2C18,1.2,22.8,6,22.8,12S18,22.8,12,22.8
	S1.2,18,1.2,12S6,1.2,12,1.2z M9.4,17.1H5.5v-0.2l1.4-1.6C7,15.2,7.1,15,7.1,14.8V9c0-0.1,0-0.3-0.2-0.4L5.7,7V6.8h3.8l2.9,6.4
	L15,6.8h3.5V7l-1.1,1c-0.1,0.1-0.1,0.2-0.1,0.3v7.3c0,0.1,0,0.2,0.1,0.3l1,1v0.2h-5.1v-0.2l1.1-1c0.1-0.1,0.1-0.1,0.1-0.3V9.7
	l-2.9,7.4h-0.4L7.8,9.7v5c0,0.2,0,0.4,0.2,0.5l1.4,1.6V17.1z"/>
</svg>
