<?xml version="1.0" encoding="utf-8"?>
<!-- Generator: Adobe Illustrator 21.0.2, SVG Export Plug-In . SVG Version: 6.00 Build 0)  -->
<svg version="1.1" id="Layer_1" xmlns="http://www.w3.org/2000/svg" xmlns:xlink="http://www.w3.org/1999/xlink" x="0px" y="0px"
	 viewBox="0 0 24 24" style="enable-background:new 0 0 24 24;" xml:space="preserve">
<style type="text/css">
	.st0{fill:#A53438;}
</style>
<path class="st0" d="M12,1.2C18,1.2,22.8,6,22.8,12S18,22.8,12,22.8S1.2,18,1.2,12S6,1.2,12,1.2z M12,0C5.4,0,0,5.4,0,12
	s5.4,12,12,12s12-5.4,12-12S18.6,0,12,0z M9.8,7.7c0,0.7-0.4,1.1-1.1,1.1s-1-0.5-1-1.1s0.4-1.1,1.1-1.1S9.8,7,9.8,7.7z M9.8,9.8H7.7
	v6.5h2.2L9.8,9.8L9.8,9.8z M13.1,9.8h-2.2v6.5h2.2v-3.1c0-1.8,2.2-2.1,2.2,0v3.1h2.2v-3.7c0-3.6-3.4-3.5-4.3-1.6L13.1,9.8L13.1,9.8z
	"/>
</svg>
