<?xml version="1.0" encoding="utf-8"?>
<!-- Generator: Adobe Illustrator 21.0.2, SVG Export Plug-In . SVG Version: 6.00 Build 0)  -->
<svg version="1.1" id="Layer_1" xmlns="http://www.w3.org/2000/svg" xmlns:xlink="http://www.w3.org/1999/xlink" x="0px" y="0px"
	 viewBox="0 0 24 24" style="enable-background:new 0 0 24 24;" xml:space="preserve">
<style type="text/css">
	.st0{fill:#A53438;}
</style>
<path class="st0" d="M12,1.2C18,1.2,22.8,6,22.8,12S18,22.8,12,22.8S1.2,18,1.2,12S6,1.2,12,1.2z M12,0C5.4,0,0,5.4,0,12
	s5.4,12,12,12s12-5.4,12-12S18.6,0,12,0z M19,8.5c-0.4,0.2-1,0.3-1.5,0.4c0.5-0.3,1-0.9,1.2-1.5C18.2,7.8,17.6,8,17,8.1
	c-0.4-0.5-1.2-0.9-1.9-0.9c-1.7,0-3,1.6-2.6,3.2C10.3,10.3,8.3,9.2,7,7.6C6.3,9,6.6,10.5,7.8,11.3c-0.4,0-0.9-0.1-1.2-0.3
	c0,1.2,0.9,2.4,2.2,2.6c-0.3,0.1-0.8,0.1-1.2,0c0.3,1.1,1.3,1.8,2.5,1.8c-1.1,0.9-2.5,1.3-3.9,1.1c1.2,0.8,2.6,1.2,4.1,1.2
	c5,0,7.8-4.2,7.6-7.9C18.3,9.5,18.7,9.1,19,8.5z"/>
</svg>
