<?xml version="1.0" encoding="utf-8"?>
<!-- Generator: Adobe Illustrator 21.0.2, SVG Export Plug-In . SVG Version: 6.00 Build 0)  -->
<svg version="1.1" id="Layer_1" xmlns="http://www.w3.org/2000/svg" xmlns:xlink="http://www.w3.org/1999/xlink" x="0px" y="0px"
	 viewBox="0 0 24 24" style="enable-background:new 0 0 24 24;" xml:space="preserve">
<style type="text/css">
	.st0{fill:#A53438;}
</style>
<path class="st0" d="M12,1.2C18,1.2,22.8,6,22.8,12S18,22.8,12,22.8S1.2,18,1.2,12S6,1.2,12,1.2z M12,0C5.4,0,0,5.4,0,12
	s5.4,12,12,12s12-5.4,12-12S18.6,0,12,0z M12,5.5c-3.6,0-6.5,2.9-6.5,6.5c0,2.9,1.8,5.3,4.4,6.2c0.3,0.1,0.4-0.1,0.4-0.3v-1.2
	c-1.8,0.4-2.2-0.8-2.2-0.8c-0.3-0.8-0.8-1-0.8-1c-0.5-0.4,0-0.4,0-0.4c0.7,0,1,0.7,1,0.7c0.5,1,1.5,0.8,1.8,0.5
	c0.1-0.4,0.2-0.8,0.4-0.9c-1.4-0.2-2.9-0.8-2.9-3.2c0-0.8,0.2-1.3,0.7-1.7c0-0.1-0.2-0.8,0.1-1.6c0,0,0.5-0.2,1.7,0.7
	c0.6-0.1,1.2-0.2,1.7-0.2s1.1,0.1,1.6,0.2c1.2-0.9,1.7-0.7,1.7-0.7c0.3,0.9,0.1,1.5,0.1,1.7c0.4,0.4,0.7,1.1,0.7,1.7
	c0,2.5-1.5,3-2.9,3.2c0.2,0.2,0.4,0.6,0.4,1.2v1.7c0,0.2,0.1,0.3,0.4,0.3c2.6-0.9,4.4-3.2,4.4-6.2C18.5,8.4,15.6,5.5,12,5.5z"/>
</svg>
