<svg id="Layer_1" xmlns="http://www.w3.org/2000/svg" viewBox="0 0 200.7 200.7"><style/><linearGradient id="SVGID_1_" gradientUnits="userSpaceOnUse" x1="181.2" y1="181.162" x2="23.76" y2="23.722"><stop offset="0" stop-color="#746174"/><stop offset=".33" stop-color="#a53438"/><stop offset=".66" stop-color="#ef364c"/><stop offset="1" stop-color="#f4a927"/></linearGradient><path d="M93 125.6c-12 0-26.1 7.3-26.1 27.8v7.9c0 12.7-10.3 23-23 23h-4.5c-12.7 0-23-10.3-23-23v-4.5c0-12.7 10.3-23 23-23h3.9c7.9 0 15.8-3 21.6-8.2 4.5-4 9.7-11.2 10.2-22.8h.1V92.1c0-9.4 7.6-17 17-17l1-.1h9.7c11.6-.5 18.8-5.7 22.8-10.2 5.2-5.8 8.2-13.6 8.2-21.6v-3.9c0-12.7 10.3-23 23-23h4.5c12.7 0 23 10.3 23 23v4.5c0 12.7-10.3 23-23 23h-7.9c-20.6 0-27.8 14-27.8 26.1v15.7c0 9.4-7.6 17.1-17 17.1H93zm74.4 0c9.4 0 17-7.6 17-17V92c0-9.4-7.6-17-17-17h-16.5c-9.4 0-17 7.6-17 17v16.5c-.3 14.2-11.3 25.3-25.2 25.3H92.1c-9.4 0-17 7.6-17 17v16.5c0 9.4 7.6 17 17 17h16.5c9.4 0 17-7.6 17-17v-22.6c0-3.2 1.2-8.1 4.6-12.2 2.6-3.2 7.3-7 15.3-7h21.9zm6 8.3h-28.5c-6.1 0-11 4.9-11 11v28.5c0 6.1 4.9 11 11 11h28.5c6.1 0 11-4.9 11-11v-28.5c0-6.1-4.9-11-11-11zm-131.8-67c13.9 0 25.3-11.3 25.3-25.3S55.5 16.3 41.6 16.3 16.3 27.7 16.3 41.6s11.4 25.3 25.3 25.3zm-2.2 58.7h4.5c12.7 0 23-10.3 23-23v-9.9C66.9 78 78 66.9 92.7 66.9h9.9c12.7 0 23.1-10.3 23.1-23.1v-4.4c0-12.7-10.3-23.1-23.1-23.1h-4.4c-12.7 0-23.1 10.3-23.1 23.1v2.2c0 16.1-12.8 33.5-33.5 33.5h-2.3c-12.7 0-23 10.3-23 23v4.5c0 12.7 10.4 23 23.1 23z" fill="url(#SVGID_1_)"/></svg>