<svg id="Layer_1" xmlns="http://www.w3.org/2000/svg" viewBox="0 0 362 328"><style>.st0{fill:none;stroke:#a43237;stroke-miterlimit:10}.st7{fill:gray}</style><path class="st0" d="M25.4 271.5l1 .3"/><path fill="none" stroke="#a43237" stroke-miterlimit="10" stroke-dasharray="2.0003,2.0003" d="M28.3 272.5l64.4 23.4 165.5 17.8"/><path class="st0" d="M259.2 313.8l1 .2-.9-.4"/><path fill="none" stroke="#a43237" stroke-miterlimit="10" stroke-dasharray="2.0295,2.0295" d="M257.4 312.8l-100.7-40.6"/><path class="st0" d="M155.8 271.8l-1-.3M260.2 314l63.9-77.6 24.4-89.8L334 84.7l-15.1-69.8-218.9 2-34.9 17.8-36.6 62.9-15.6 100.1 12.5 73.8"/><path class="st0" d="M348.5 146.6l-72.8-25L334 84.7l-83.7-6.9 68.6-62.9-164.1 32.2L100 16.9 119.9 91l34.9-43.9 95.5 30.7 25.4 43.8-76.9 25 71.3 105-130.4-9.9-47 54.2-2.6-93.6-77.2-4.6 54.9-53.5-39.3-46.6 91.4-6.6-54.8-56.3"/><path class="st0" d="M270.1 251.6l54-15.2-48.4-114.8zM119.9 91L90.1 202.3l-22.3-58.1zm0 0l78.9 55.6-44-99.5"/><path class="st0" d="M250.3 77.8l-51.5 68.8-59.1 95.1-49.6-39.4 108.7-55.7M260.2 304l9.9-52.4-115.3 19.9-15.1-29.8m15.1 29.8l-62.1 24.4m-2.6-93.6l-64.7 69.2"/><circle cx="154.8" cy="47.1" r="9.9" fill="#f4a928"/><circle cx="198.8" cy="146.6" r="9.9" fill="#ef324b"/><circle cx="90.1" cy="202.3" r="9.9"/><circle cx="270.1" cy="251.6" r="9.9" fill="#ff7bac"/><circle cx="92.7" cy="295.9" r="9.9" fill="#f4cc95"/><circle class="st7" cx="318.9" cy="14.9" r="9.9"/><circle class="st7" cx="334" cy="84.7" r="9.9"/><circle class="st7" cx="348.5" cy="146.6" r="9.9"/><circle class="st7" cx="324.1" cy="236.4" r="9.9"/><circle class="st7" cx="275.7" cy="121.6" r="9.9"/><circle class="st7" cx="250.3" cy="77.8" r="9.9"/><circle class="st7" cx="100" cy="16.9" r="9.9"/><circle class="st7" cx="65.1" cy="34.7" r="9.9"/><circle class="st7" cx="119.9" cy="91" r="9.9"/><circle class="st7" cx="28.5" cy="97.6" r="9.9"/><circle class="st7" cx="67.8" cy="144.2" r="9.9"/><circle class="st7" cx="12.9" cy="197.7" r="9.9"/><circle class="st7" cx="25.4" cy="271.5" r="9.9"/><circle class="st7" cx="139.7" cy="241.7" r="9.9"/><circle class="st7" cx="154.8" cy="271.5" r="9.9"/><circle class="st7" cx="260.2" cy="314" r="9.9"/></svg>