<svg xmlns="http://www.w3.org/2000/svg" viewBox="0 0 24 24"><path d="M12 1.2C18 1.2 22.8 6 22.8 12S18 22.8 12 22.8 1.2 18 1.2 12 6 1.2 12 1.2zM12 0C5.4 0 0 5.4 0 12s5.4 12 12 12 12-5.4 12-12S18.6 0 12 0zm0 5.5c-3.6 0-6.5 2.9-6.5 6.5 0 2.9 1.8 5.3 4.4 6.2.3.1.4-.1.4-.3v-1.2c-1.8.4-2.2-.8-2.2-.8-.3-.8-.8-1-.8-1-.5-.4 0-.4 0-.4.7 0 1 .7 1 .7.5 1 1.5.8 1.8.5.1-.4.2-.8.4-.9-1.4-.2-2.9-.8-2.9-3.2 0-.8.2-1.3.7-1.7 0-.1-.2-.8.1-1.6 0 0 .5-.2 1.7.7.6-.1 1.2-.2 1.7-.2s1.1.1 1.6.2c1.2-.9 1.7-.7 1.7-.7.3.9.1 1.5.1 1.7.4.4.7 1.1.7 1.7 0 2.5-1.5 3-2.9 3.2.2.2.4.6.4 1.2v1.7c0 .2.1.3.4.3 2.6-.9 4.4-3.2 4.4-6.2.3-3.5-2.6-6.4-6.2-6.4z" fill="#a53438"/></svg>