<svg xmlns="http://www.w3.org/2000/svg" viewBox="0 0 24 24"><path d="M12 1.2C18 1.2 22.8 6 22.8 12S18 22.8 12 22.8 1.2 18 1.2 12 6 1.2 12 1.2zM12 0C5.4 0 0 5.4 0 12s5.4 12 12 12 12-5.4 12-12S18.6 0 12 0zm7 8.5c-.4.2-1 .3-1.5.4.5-.3 1-.9 1.2-1.5-.5.4-1.1.6-1.7.7-.4-.5-1.2-.9-1.9-.9-1.7 0-3 1.6-2.6 3.2-2.2-.1-4.2-1.2-5.5-2.8-.7 1.4-.4 2.9.8 3.7-.4 0-.9-.1-1.2-.3 0 1.2.9 2.4 2.2 2.6-.3.1-.8.1-1.2 0 .3 1.1 1.3 1.8 2.5 1.8-1.1.9-2.5 1.3-3.9 1.1 1.2.8 2.6 1.2 4.1 1.2 5 0 7.8-4.2 7.6-7.9.4-.3.8-.7 1.1-1.3z" fill="#a53438"/></svg>